<svg width="16" height="16" viewBox="0 0 16 16" fill="none" xmlns="http://www.w3.org/2000/svg">
<path d="M4 7.96712L5.62909 0.652832H8.92218C9.93842 0.652832 10.7219 0.854845 11.2727 1.25887C11.8313 1.65593 12.1105 2.21321 12.1105 2.93071C12.1105 3.54372 11.9515 4.0801 11.6335 4.53985C11.3154 4.99264 10.8577 5.34095 10.2604 5.58475C9.67078 5.82855 8.96873 5.95046 8.15418 5.95046H5.51273L6.51345 5.17724L5.89673 7.96712H4ZM6.46691 5.37577L5.80364 4.5712H8.23564C8.85624 4.5712 9.33722 4.44581 9.67855 4.19504C10.0276 3.93729 10.2022 3.56462 10.2022 3.077C10.2022 2.72173 10.0703 2.46051 9.80654 2.29332C9.54278 2.11917 9.17042 2.0321 8.68945 2.0321H6.39709L7.39782 1.20663L6.46691 5.37577Z" fill="#0369A1"/>
<path d="M1.45312 9.3877C1.45312 10.5785 2.14273 11.7205 3.37025 12.5625C4.59776 13.4045 6.26262 13.8775 7.99858 13.8775C9.73454 13.8775 11.3994 13.4045 12.6269 12.5625C13.8544 11.7205 14.544 10.5785 14.544 9.3877H12.5224C12.5224 10.2107 12.0457 11 11.1974 11.5819C10.349 12.1638 9.19836 12.4907 7.99858 12.4907C6.7988 12.4907 5.64816 12.1638 4.79978 11.5819C3.9514 10.9999 3.4748 10.2107 3.4748 9.3877H1.45312Z" fill="#72CAF8"/>
</svg>
